<?xml version="1.0" encoding="utf-8"?>
<!-- Generator: Adobe Illustrator 18.1.0, SVG Export Plug-In . SVG Version: 6.00 Build 0)  -->
<!DOCTYPE svg PUBLIC "-//W3C//DTD SVG 1.1//EN" "http://www.w3.org/Graphics/SVG/1.1/DTD/svg11.dtd">
<svg version="1.1" id="Layer_1" xmlns="http://www.w3.org/2000/svg" xmlns:xlink="http://www.w3.org/1999/xlink" x="0px" y="0px"
	 viewBox="0 0 612 792" style="enable-background:new 0 0 612 792;" xml:space="preserve">
<style type="text/css">
	.st0{fill:#00B0AE;}
	.st1{fill:#FFFFFF;}
</style>
<rect x="31.4" y="167.4" class="st0" width="244" height="30.6"/>
<rect x="31.4" y="228.5" class="st0" width="244" height="30.6"/>
<rect x="31.4" y="289.8" class="st0" width="244" height="30.6"/>
<rect x="331.5" y="167.4" class="st1" width="243.9" height="30.6"/>
<rect x="331.5" y="228.5" class="st1" width="243.9" height="30.6"/>
<rect x="331.5" y="289.8" class="st1" width="243.9" height="30.6"/>
<polygon class="st0" points="232.9,492.9 208.2,468.2 153.9,522.7 98.6,468.2 73.9,492.9 128.4,547.3 73.9,602.5 98.6,627.2 
	153.9,572.8 208.2,627.2 232.9,602.5 178.5,547.3 "/>
<polygon class="st1" points="533,492.9 507.5,468.2 453,522.7 398.7,468.2 374,492.9 428.4,547.3 374,602.5 398.7,627.2 453,572.8 
	507.5,627.2 533,602.5 478.5,547.3 "/>
</svg>
