<?xml version="1.0" encoding="utf-8"?>
<!-- Generator: Adobe Illustrator 18.1.0, SVG Export Plug-In . SVG Version: 6.00 Build 0)  -->
<!DOCTYPE svg PUBLIC "-//W3C//DTD SVG 1.1//EN" "http://www.w3.org/Graphics/SVG/1.1/DTD/svg11.dtd">
<svg version="1.1" xmlns="http://www.w3.org/2000/svg" xmlns:xlink="http://www.w3.org/1999/xlink" x="0px" y="0px" width="396px"
	 height="245px" viewBox="0 0 396 245" style="enable-background:new 0 0 396 245;" xml:space="preserve">
<style type="text/css">
	.st0{fill:#01B1AF;}
	.st1{fill:#FFFFFF;}
	.st2{fill:#FFFFFF;stroke:#01B1AF;stroke-width:5;stroke-miterlimit:10;}
	.st3{fill:#C4B67A;}
</style>
<g id="cup">
	<g id="base">
		<polygon class="st0" points="7.8,57.5 162.8,57.5 140.7,207.5 29.1,207.5 		"/>
		<g>
			<path class="st0" d="M35.9,211.6l98.2,0.6l-3.9,27.4h-90L35.9,211.6 M28.8,205.5l6.2,40h100.3l5.6-39.3L28.8,205.5L28.8,205.5z"
				/>
		</g>
		<path class="st1" d="M71,194.7c-7.1,1.2-14.2,2.4-21.3,3.6c-3.1-18.6-6.2-37.2-9.4-55.8c-0.1-0.4,0-0.6,0.4-0.6
			c7.1-1.2,14.3-2.4,21.4-3.6c0.8,0,1.6,0,2.4,0c5.5,0,9.8,2.2,12.7,6.9c2.1,3.4,3.3,7.1,4.2,11c1.1,4.9,2,9.8,2.6,14.8
			c0.4,3.3,0.5,6.6,0,9.9c-1,6.3-4.4,10.8-10.5,13.1C72.7,194.2,71.9,194.5,71,194.7z M56.8,168.2c1.1,6.3,2.1,12.6,3.2,18.9
			c0.1,0.5,0.2,0.6,0.7,0.5c1.8-0.3,3.7-0.6,5.6-1c3.4-0.6,5.2-2.5,5.8-6c0.4-2.5,0.3-5,0-7.5c-0.6-5.3-1.4-10.5-2.6-15.7
			c-0.5-2.3-1.2-4.6-2.5-6.6c-1.6-2.5-3.9-3.7-6.9-3.2c-2,0.3-3.9,0.7-5.9,0.9c-0.5,0.1-0.6,0.2-0.5,0.7
			C54.6,155.6,55.7,161.9,56.8,168.2z"/>
		<path class="st1" d="M132,184.5c-4.1,0.7-8.3,1.4-12.4,2.1c-1.6-3.8-3.3-7.6-4.9-11.4c-0.2-0.4-0.4-0.5-0.8-0.4
			c-5,0.8-9.9,1.7-14.9,2.5c-0.5,0.1-0.6,0.3-0.6,0.7c-0.2,3-0.5,5.9-0.7,8.9c-0.1,1.2-0.3,2.3-0.2,3.5c-3.9,0.7-7.8,1.3-11.7,2
			c0,0,0-0.1,0-0.1c1.9-17.7,3.7-35.5,5.6-53.2c0.2-1.9,0.4-3.7,0.5-5.6c5.2-0.9,10.4-1.7,15.7-2.6c0,0.1,0.1,0.3,0.1,0.4
			c7.6,16.5,15.1,32.9,22.7,49.4C130.8,181.8,131.5,183.1,132,184.5z M100.7,143.1c0,0-0.1,0-0.1,0c0,0.1,0,0.2,0,0.3
			c-0.4,8.1-0.8,16.2-1.3,24.3c0,0.4,0.1,0.6,0.5,0.5c3.3-0.6,6.7-1.1,10-1.7c0.5-0.1,0.6-0.3,0.4-0.7c-2.4-5.6-4.7-11.3-7.1-16.9
			C102.3,146.9,101.5,145,100.7,143.1z"/>
		<path class="st1" d="M150.4,181.5c-4.6,0.8-9.3,1.6-13.9,2.3c0-0.1-0.1-0.3-0.1-0.4c-1.9-4.4-3.8-8.9-5.7-13.3
			c-5.1-11.8-10.2-23.7-15.3-35.5c-0.7-1.6-1.3-3.2-2-4.8c4.1-0.7,8.2-1.4,12.3-2.1c0,0.3,0.1,0.5,0.2,0.7
			c4.9,12.3,9.7,24.6,14.6,36.9c0.2,0.6,0.5,1.2,0.8,1.9c0.2-0.3,0.1-0.5,0.1-0.6c0.9-13,1.8-26,2.7-39c0.1-1,0.3-2,0.1-3
			c3.9-0.7,7.8-1.3,11.7-2c0,0.1,0,0.2,0,0.3c-1.5,16.4-3,32.7-4.6,49.1C151,175.1,150.7,178.3,150.4,181.5z"/>
		<polygon class="st0" points="150.6,115.5 140,192.2 143,191.5 154.2,115.5 		"/>
	</g>
	<g id="lid">
		<path class="st2" d="M16.6,40.6L22.4,6c0.4-2.3,2.5-4,4.8-3.8L145.6,13c1.6,0.1,2.9,1.3,3.2,2.9l4.7,24.6"/>
		<path class="st2" d="M5.1,59.8h159.4c1.6,0,2.9-1.3,2.9-2.9c-0.1-4.9-1.8-14.3-14.6-15.1H13.9c0,0-10.8-0.1-11.6,15
			C2.2,58.4,3.5,59.8,5.1,59.8z"/>
	</g>
</g>
<g id="tea">
	<polygon id="liquid_2_" class="st3" points="210.6,105.5 345.6,105.5 325.2,245.5 230.6,245.5 	"/>
	<g id="mug_2_">
		<g>
			<g>
				<path class="st0" d="M348.4,63.5l-20.9,141.7c0,0.2-0.1,0.5-0.1,0.8l-4.7,33.5h-90l-5.1-33c0-0.2-0.1-0.4-0.1-0.6L207.3,63.5
					H348 M352.3,57.5H203.5c-1.6,0-2.9,1.4-2.7,3.1l20.8,146.9h0l5.2,33.2c0.4,2.8,2.8,4.8,5.6,4.8H323c2.8,0,5.2-2.4,5.6-5.2
					l4.9-34.8h0l21.5-145.3C355.2,58.6,353.9,57.5,352.3,57.5L352.3,57.5z"/>
			</g>
		</g>
		<path class="st0" d="M350.8,73c0,0-0.7,0,12.4,2.8c0,0,0.4,0.1,1.1,0.3c16.7,4.6,29.2,18.8,31.6,36c0.5,3.5,0.5,7.3,0,11.3
			c-1.6,13.9-8.1,26.9-18.1,36.7c-9,8.7-22.8,18.2-42.1,21.3l3.5-15.9c0,0,1.8,2.8,11.3-0.2c0,0,30-5.9,36.2-38.2
			c0,0,5.5-31-20.1-40.3c0,0-12.8-4.3-18.2,0.1L350.8,73z"/>
	</g>
	<g>
	</g>
	<g>
	</g>
	<g>
	</g>
	<g>
	</g>
	<g>
	</g>
	<g>
	</g>
	<g>
	</g>
	<g>
	</g>
	<g>
	</g>
	<g>
	</g>
	<g>
	</g>
	<g>
	</g>
	<g>
	</g>
	<g>
	</g>
	<g>
	</g>
</g>
</svg>
