<?xml version="1.0" encoding="utf-8"?>
<!-- Generator: Adobe Illustrator 18.1.0, SVG Export Plug-In . SVG Version: 6.00 Build 0)  -->
<!DOCTYPE svg PUBLIC "-//W3C//DTD SVG 1.1//EN" "http://www.w3.org/Graphics/SVG/1.1/DTD/svg11.dtd">
<svg version="1.1" id="Layer_1" xmlns="http://www.w3.org/2000/svg" xmlns:xlink="http://www.w3.org/1999/xlink" x="0px" y="0px"
	 viewBox="285.1 286.2 221.8 39.6" style="enable-background:new 285.1 286.2 221.8 39.6;" xml:space="preserve">
<style type="text/css">
	.st0{fill:#00B0AF;}
	.st1{fill:#3CC3C3;}
	.st2{fill:#46C6C5;}
	.st3{fill:#42C5C4;}
	.st4{fill:#45C6C5;}
	.st5{fill:#40C4C3;}
</style>
<path class="st0" d="M358,286.3c2.7,0,5.4,0,8.1,0c0.2,0.2,0.1,0.4,0.1,0.7c-0.4,1.5-0.8,3-1.2,4.6c-0.6,2.1-1.1,4.3-1.7,6.4
	c-1.2,4.5-2.4,9-3.6,13.6c-0.8,3-1.6,6.1-2.4,9.1c-0.4,1.6-0.8,3.2-1.3,4.7c-0.1,0.2-0.1,0.4-0.3,0.5c-3.3,0-6.5,0-9.8,0
	c-0.2-0.1-0.2-0.3-0.3-0.5c-0.9-3.7-1.9-7.5-2.8-11.2c-1.3-5.3-2.6-10.5-3.9-15.8c-0.9-3.8-1.9-7.6-2.8-11.3
	c-0.1-0.2-0.2-0.5,0.1-0.7c2.9,0,5.8,0,8.6,0c0.2,0.2,0.3,0.5,0.3,0.8c0.4,2,0.8,4,1.3,6c1.2,5.3,2.3,10.6,3.4,15.9
	c0.3,1.6,0.7,3.2,1,4.8c0,0.1,0,0.2,0.1,0.3c0.6-2.3,1.1-4.5,1.6-6.7c0.4-1.8,0.9-3.6,1.3-5.5c1.2-5,2.4-10,3.6-15
	C357.7,286.8,357.7,286.4,358,286.3z"/>
<path class="st0" d="M472,286.3c0,1.9,0,3.8,0,5.7c0,0.3-0.1,0.4-0.4,0.4c-4.1,0-8.3,0-12.4,0c-0.4,0-0.5,0.1-0.5,0.5
	c0,2.9,0,5.8,0,8.7c0,0.5,0,0.5,0.5,0.5c3.8,0,7.5,0,11.2,0c0.4,0,0.5,0.1,0.5,0.5c0,1.7,0,3.4,0,5c0,0.6,0,0.6-0.5,0.6
	c-3.7,0-7.5,0-11.2,0c-0.5,0-0.5,0-0.5,0.5c0,3.5,0,7,0,10.6c0,0.3,0.1,0.4,0.4,0.4c4.3,0,8.6,0,12.9,0c0.4,0,0.4,0.1,0.4,0.4
	c0,1.7,0,3.5,0,5.1c0,0.2,0,0.3,0,0.5c-7.4,0-14.7,0-22,0c-0.1-0.1-0.2-0.3-0.2-0.4c0-0.2,0-0.4,0-0.6c0-12.5,0-25,0-37.4
	c0-0.2,0-0.4,0-0.6c0-0.2,0-0.3,0.2-0.4C457.6,286.3,464.8,286.3,472,286.3z"/>
<path class="st0" d="M429.9,325.8c0-0.1,0-0.2,0-0.4c0-10.7,0-21.4,0-32.1c0-0.4-0.1-0.5-0.5-0.5c-3.5,0-7,0-10.6,0
	c-0.3,0-0.4-0.1-0.4-0.4c0-2.1,0-4.1,0-6.2c9.9,0,19.9,0,29.7,0c0.2,0.1,0.2,0.3,0.2,0.5c0,1.9,0,3.8,0,5.7c0,0.5-0.1,0.6-0.6,0.6
	c-0.3,0-0.6,0-0.9,0c-2.6,0-5.1,0-7.7,0c-0.6,0-0.7,0.1-0.8,0.8c0,0.2,0,0.4,0,0.6c0,10.1,0,20.2,0,30.4c0,0.3,0.1,0.7-0.2,0.9
	C435.4,325.8,432.6,325.8,429.9,325.8z"/>
<path class="st0" d="M376.8,325.8c-2.8,0-5.5,0-8.3,0c-0.1-0.1-0.2-0.3-0.2-0.4c0-0.2,0-0.4,0-0.6c0-12.5,0-25,0-37.4
	c0-0.2,0-0.4,0-0.6c0-0.2,0-0.3,0.2-0.4c2.8,0,5.5,0,8.3,0c0.1,0.1,0.2,0.3,0.2,0.4c0,0.2,0,0.4,0,0.6c0,12.5,0,25,0,37.4
	c0,0.2,0,0.4,0,0.6C377,325.5,376.9,325.7,376.8,325.8z"/>
<path class="st0" d="M416.1,325.8c-0.5-0.2-1.1-0.2-1.6-0.3c-3.2-0.7-4.9-2.6-5.4-5.8c-0.1-0.9-0.2-1.9-0.2-2.9
	c0-0.3,0.1-0.4,0.4-0.4c1.9,0,3.7,0,5.6,0c0.3,0,0.3,0.1,0.3,0.3c0,0.8,0,1.7,0.2,2.5c0.3,1.2,0.9,1.7,2.1,1.8
	c1.1,0.1,2-0.5,2.4-1.5c0.6-1.5,0.1-3.1-1.3-4.3c-1.1-0.9-2.3-1.5-3.5-2.1c-1.3-0.7-2.6-1.4-3.8-2.4c-3.4-2.8-3-8-1.1-10.4
	c1.1-1.4,2.5-2.2,4.2-2.6c2.4-0.6,4.8-0.7,7.1,0.3c2.4,1,3.7,2.9,4.1,5.4c0.1,0.6,0.1,1.3,0.1,1.9c0,0.3-0.1,0.3-0.3,0.3
	c-1.9,0-3.7,0-5.6,0c-0.2,0-0.3,0-0.3-0.3c0-0.8,0-1.6-0.2-2.3c-0.2-0.8-0.7-1.3-1.5-1.4c-1.1-0.1-1.9,0.1-2.3,0.9
	c-0.6,1.3-0.7,2.9,0.7,4c0.9,0.7,1.8,1.2,2.8,1.8c1.3,0.7,2.5,1.3,3.7,2.2c1.7,1.3,3,2.8,3.4,5c0.7,3.2-0.3,6.9-3.4,8.9
	c-1.1,0.7-2.3,1.1-3.5,1.3c-0.1,0-0.2,0-0.2,0.1c-0.7,0-1.5,0-2.3,0c-0.2-0.1-0.3-0.1-0.5,0C416.3,325.8,416.2,325.8,416.1,325.8z"
	/>
<path class="st1" d="M416.5,325.8c0.2-0.1,0.3-0.1,0.5,0C416.8,325.8,416.6,325.8,416.5,325.8z"/>
<path class="st2" d="M300.3,286.3c-0.2,0.1-0.3,0.1-0.5,0C300,286.3,300.2,286.3,300.3,286.3z"/>
<path class="st3" d="M395,286.3c-0.2,0.1-0.3,0.1-0.5,0C394.7,286.3,394.8,286.3,395,286.3z"/>
<path class="st4" d="M299.5,325.8c0.1-0.1,0.3-0.1,0.4,0C299.7,325.8,299.6,325.8,299.5,325.8z"/>
<path class="st5" d="M394.1,325.8c0.1-0.1,0.3-0.1,0.4,0C394.4,325.8,394.2,325.8,394.1,325.8z"/>
<path class="st0" d="M311.8,301c-0.2-2.3-0.4-4.6-1.1-6.8c-0.7-2.2-1.7-4.2-3.5-5.7c-1.4-1.1-3-1.8-4.8-2.1
	c-0.6-0.1-1.2-0.1-1.8-0.2c-0.1,0-0.2,0-0.3,0c-0.2,0.1-0.3,0.1-0.5,0c-4.8,0-9.7,0-14.5,0c-0.3,0-0.3,0.1-0.3,0.3
	c0,12.9,0,25.9,0,38.9c0,0.3,0.1,0.3,0.3,0.3c4.7,0,9.4,0,14.1,0c0.1-0.1,0.3-0.1,0.4,0c0.1,0,0.3,0,0.4,0c0.2-0.1,0.5-0.1,0.7-0.1
	c2.5-0.1,4.7-1.1,6.6-2.8c1.5-1.3,2.4-3,3-4.8c0.9-2.7,1.3-5.5,1.3-8.3C312,306.9,312,304,311.8,301z M303.2,311.2
	c-0.1,1.7-0.3,3.4-0.9,5c-0.8,2.3-2.3,3.4-4.7,3.4c-1.3,0-2.6,0-3.9,0c-0.3,0-0.4-0.1-0.4-0.4c0-4.4,0-8.8,0-13.3
	c0-4.4,0-8.8,0-13.2c0-0.4,0.1-0.5,0.5-0.5c1.4,0,2.7,0,4.1,0c2.1,0,3.6,1.1,4.4,3c0.6,1.5,0.9,3.1,0.9,4.7
	C303.4,303.8,303.4,307.5,303.2,311.2z"/>
<path class="st0" d="M406.3,299.6c-0.2-2.2-0.5-4.4-1.3-6.5c-1-2.7-2.6-4.8-5.4-5.9c-0.9-0.4-1.8-0.7-2.7-0.8
	c-0.5,0-1.1-0.1-1.6-0.1c-0.1,0-0.2,0-0.3,0c-0.2,0.1-0.3,0.1-0.5,0c-4.9,0-9.9,0-14.8,0c-0.1,0.1-0.2,0.3-0.2,0.4
	c0,0.2,0,0.4,0,0.6c0,12.5,0,25,0,37.4c0,0.2,0,0.4,0,0.6c0,0.2,0,0.3,0.2,0.4c4.8,0,9.6,0,14.4,0c0.1-0.1,0.3-0.1,0.4,0
	c0.1,0,0.3,0,0.4,0c0.3-0.1,0.6-0.1,0.8-0.1c2.5-0.1,4.7-1.1,6.5-2.8c1.5-1.4,2.4-3,3-4.9c0.8-2.3,1.2-4.8,1.2-7.2
	C406.6,307.1,406.7,303.3,406.3,299.6z M397.8,311.5c-0.1,1.7-0.3,3.5-1,5.1c-0.8,2-2.3,3-4.5,3.1c-1.4,0-2.7,0-4,0
	c-0.3,0-0.4-0.1-0.4-0.4c0-4.4,0-8.9,0-13.3c0-4.4,0-8.8,0-13.2c0-0.3,0.1-0.4,0.4-0.4c1.4,0,2.7,0,4.1,0c2.2,0,3.7,1.2,4.5,3.2
	c0.6,1.4,0.8,2.9,0.9,4.4C398.1,303.8,398.1,307.7,397.8,311.5z"/>
<path class="st0" d="M506.8,325.6c-0.1-0.5-0.1-1.1-0.3-1.7c-0.7-2.7-1.5-5.5-2.2-8.3c-1.1-4-2.2-8.1-3.3-12.1
	c-1.2-4.3-2.3-8.6-3.5-12.9c-0.3-1.3-0.7-2.5-1-3.8c-0.1-0.3-0.1-0.5-0.4-0.7c-3.6,0-7.2,0-10.9,0c-0.3,0.2-0.3,0.5-0.4,0.9
	c-0.9,3.3-1.8,6.5-2.7,9.8c-1,3.6-2,7.1-3,10.7c-0.9,3.5-1.9,6.9-2.9,10.4c-0.7,2.4-1.3,4.8-2,7.2c-0.1,0.2-0.1,0.4,0.1,0.5
	c2.7,0,5.4,0,8.1,0c0.3-0.1,0.3-0.4,0.4-0.7c0.6-2.4,1.2-4.7,1.8-7.1c0.2-0.7,0.2-0.7,0.9-0.7c3.2,0,6.3,0,9.5,0c0.1,0,0.2,0,0.3,0
	c0.3,0,0.4,0.1,0.5,0.4c0.3,1.2,0.6,2.4,0.9,3.6c0.3,1.3,0.6,2.5,0.9,3.8c0.1,0.2,0.1,0.5,0.4,0.6c1.7,0,3.5,0,5.2,0
	c1.1,0,2.2,0,3.3,0C506.7,325.8,506.9,325.9,506.8,325.6z M493.8,311c-2.3,0-4.7,0-7,0c-0.3,0-0.4,0-0.3-0.4
	c1.2-5.5,2.4-10.9,3.6-16.3c0-0.1,0.1-0.2,0.1-0.3c0,0,0.1,0,0.1,0c0.3,1.1,0.5,2.1,0.8,3.2c1.1,4.5,2.1,8.9,3.1,13.4
	C494.2,310.9,494.1,311,493.8,311z"/>
<path class="st0" d="M342.9,325.2c-0.3-1-0.5-2-0.8-2.9c-1-3.8-2-7.5-3-11.2c-1.2-4.2-2.3-8.5-3.5-12.7c-1.1-3.8-2.1-7.7-3.1-11.5
	c-0.1-0.2-0.1-0.4-0.3-0.5c-3.7,0-7.3,0-11,0c-0.4,0.3-0.4,0.8-0.5,1.3c-1,3.5-1.9,6.9-2.9,10.3c-1.1,4.1-2.3,8.1-3.4,12.2
	c-0.9,3.5-1.9,6.9-2.9,10.4c-0.4,1.5-0.8,3-1.3,4.6c-0.1,0.2-0.2,0.5,0,0.7c2.7,0,5.5,0,8.2,0c0.2-0.2,0.3-0.4,0.3-0.7
	c0.6-2.4,1.2-4.8,1.8-7.1c0.1-0.6,0.2-0.6,0.8-0.6c3.2,0,6.4,0,9.6,0c0.7,0,0.7,0,0.9,0.7c0.6,2.4,1.2,4.7,1.8,7.1
	c0.1,0.2,0.1,0.5,0.3,0.6c2.9,0,5.8,0,8.7,0C343,325.6,343,325.4,342.9,325.2z M329.7,311c-2.3,0-4.7,0-7,0c-0.3,0-0.4-0.1-0.3-0.4
	c1.2-5.5,2.4-10.9,3.7-16.4c0-0.1,0-0.1,0.1-0.2c0,0,0.1,0,0.1,0c0.5,2.1,1,4.2,1.5,6.3c0.8,3.4,1.6,6.9,2.4,10.3
	C330.2,310.9,330.1,311,329.7,311z"/>
</svg>
