<?xml version="1.0" encoding="utf-8"?>
<!-- Generator: Adobe Illustrator 18.1.0, SVG Export Plug-In . SVG Version: 6.00 Build 0)  -->
<!DOCTYPE svg PUBLIC "-//W3C//DTD SVG 1.1//EN" "http://www.w3.org/Graphics/SVG/1.1/DTD/svg11.dtd">
<svg version="1.1" id="Layer_1" xmlns="http://www.w3.org/2000/svg" xmlns:xlink="http://www.w3.org/1999/xlink" x="0px" y="0px"
	 viewBox="0 0 654.8 116.7" style="enable-background:new 0 0 654.8 116.7;" xml:space="preserve">
<style type="text/css">
	.st0{fill:#00B0AF;}
	.st1{fill:#3CC3C3;}
	.st2{fill:#46C6C5;}
	.st3{fill:#42C5C4;}
	.st4{fill:#45C6C5;}
	.st5{fill:#40C4C3;}
</style>
<path class="st0" d="M215.3,0c8,0,16,0,24,0c0.7,0.6,0.3,1.3,0.2,2c-1.2,4.5-2.3,9-3.5,13.5c-1.7,6.3-3.3,12.6-5,18.9
	c-3.5,13.4-7.1,26.7-10.6,40.1c-2.4,8.9-4.7,17.9-7.1,26.8c-1.2,4.6-2.5,9.3-3.7,13.9c-0.2,0.6-0.4,1.1-0.9,1.5
	c-9.6,0-19.2,0-28.8,0c-0.5-0.4-0.7-0.9-0.9-1.5c-2.8-11-5.5-22-8.2-33.1c-3.8-15.5-7.6-31-11.4-46.5c-2.8-11.2-5.5-22.4-8.3-33.5
	c-0.2-0.7-0.6-1.5,0.2-2.1c8.5,0,17,0,25.4,0c0.7,0.6,0.8,1.5,1,2.4c1.3,5.9,2.5,11.9,3.8,17.8c3.4,15.7,6.7,31.4,10,47
	c1,4.8,2,9.5,3,14.3c0.1,0.3,0.1,0.6,0.3,1c1.7-6.7,3.2-13.3,4.8-19.8c1.3-5.4,2.6-10.7,3.9-16.1c3.5-14.8,7.1-29.5,10.6-44.3
	C214.3,1.5,214.3,0.5,215.3,0z"/>
<path class="st0" d="M551.8,0c0,5.6,0,11.2,0,16.8c0,1-0.3,1.2-1.2,1.2c-12.2,0-24.5,0-36.7,0c-1.1,0-1.4,0.3-1.4,1.4
	c0,8.6,0,17.2,0,25.8c0,1.6,0,1.6,1.5,1.6c11.1,0,22.2,0,33.2,0c1.2,0,1.4,0.3,1.4,1.5c-0.1,5,0,9.9,0,14.9c0,1.7,0,1.7-1.6,1.7
	c-11,0-22,0-33,0c-1.5,0-1.5,0-1.5,1.6c0,10.4,0,20.8,0,31.2c0,1,0.2,1.3,1.2,1.3c12.7,0,25.4,0,38,0c1.1,0,1.3,0.3,1.3,1.3
	c-0.1,5.1,0,10.2,0,15.2c0,0.5-0.1,1,0.1,1.4c-21.7,0-43.4,0-65,0c-0.4-0.3-0.5-0.8-0.6-1.3c0-0.6,0-1.2,0-1.8
	c0-36.8,0-73.7,0-110.5c0-0.6,0-1.2,0-1.8c0-0.5,0.1-0.9,0.6-1.3C509.4,0,530.6,0,551.8,0z"/>
<path class="st0" d="M427.5,116.7c0-0.4,0-0.7,0-1.1c0-31.6,0-63.2,0-94.7c0-1.2-0.3-1.4-1.4-1.4c-10.4,0-20.8,0-31.2,0
	c-1,0-1.3-0.2-1.3-1.2c0-6.1,0-12.2,0-18.2c29.3,0,58.6,0,87.8,0C482,0.4,482,1,482,1.5c0,5.6,0.1,11.1,0,16.7
	c0,1.5-0.3,1.7-1.8,1.8c-0.9,0.1-1.8,0-2.8,0c-7.6,0-15.1,0-22.7,0c-1.9,0-2.2,0.4-2.3,2.3c0,0.6,0,1.3,0,1.9c0,29.9,0,59.7,0,89.6
	c0,1,0.3,2-0.6,2.8C443.8,116.7,435.6,116.7,427.5,116.7z"/>
<path class="st0" d="M270.7,116.7c-8.2,0-16.3,0-24.5,0c-0.4-0.3-0.5-0.8-0.6-1.3c0-0.6,0-1.2,0-1.8c0-36.8,0-73.7,0-110.5
	c0-0.6,0-1.2,0-1.8c0-0.5,0.1-0.9,0.6-1.3c8.2,0,16.3,0,24.5,0c0.4,0.3,0.5,0.8,0.6,1.3c0,0.6,0,1.2,0,1.8c0,36.8,0,73.7,0,110.5
	c0,0.6,0,1.2,0,1.8C271.3,115.9,271.2,116.3,270.7,116.7z"/>
<path class="st0" d="M386.7,116.7c-1.5-0.6-3.1-0.5-4.6-0.9c-9.3-2-14.5-7.7-15.8-17.1c-0.4-2.8-0.5-5.6-0.5-8.5
	c0-0.8,0.2-1.2,1.1-1.2c5.5,0.1,11,0,16.4,0c0.8,0,1,0.2,1,1c-0.1,2.5,0,5,0.5,7.4c0.8,3.4,2.7,5,6.3,5.3c3.3,0.2,6-1.5,7.2-4.5
	c1.7-4.5,0.3-9.2-3.7-12.7c-3.1-2.7-6.7-4.4-10.3-6.3c-3.9-2-7.7-4.2-11.1-7c-10-8.3-8.8-23.7-3.1-30.7c3.3-4,7.5-6.4,12.4-7.7
	c7-1.8,14.1-2,20.9,0.8c7.1,3,10.9,8.5,12.1,16c0.3,1.9,0.2,3.8,0.3,5.7c0,0.8-0.3,1-1,1c-5.5,0-11,0-16.6,0c-0.7,0-1-0.1-1-0.9
	c0-2.3-0.1-4.6-0.7-6.9c-0.6-2.5-2.1-3.9-4.3-4.2c-3.3-0.4-5.6,0.4-6.8,2.8c-1.9,3.8-2.1,8.6,2,11.9c2.6,2.1,5.4,3.6,8.3,5.2
	c3.7,2,7.5,3.9,10.9,6.5c5,3.7,8.8,8.4,10.1,14.7c2,9.5-1,20.5-10,26.2c-3.2,2-6.7,3.2-10.4,3.7c-0.2,0-0.5-0.1-0.6,0.2
	c-2.2,0-4.5,0-6.7,0c-0.5-0.2-1-0.2-1.4,0C387.5,116.7,387.1,116.7,386.7,116.7z"/>
<path class="st1" d="M387.9,116.7c0.5-0.3,1-0.3,1.4,0C388.8,116.7,388.3,116.7,387.9,116.7z"/>
<path class="st2" d="M45.1,0c-0.5,0.4-1,0.3-1.4,0C44.2,0,44.7,0,45.1,0z"/>
<path class="st3" d="M324.5,0c-0.5,0.4-1,0.3-1.4,0C323.5,0,324,0,324.5,0z"/>
<path class="st4" d="M42.5,116.7c0.4-0.3,0.8-0.3,1.2,0C43.3,116.7,42.9,116.7,42.5,116.7z"/>
<path class="st5" d="M321.9,116.7c0.4-0.3,0.8-0.3,1.2,0C322.7,116.7,322.3,116.7,321.9,116.7z"/>
<path class="st0" d="M78.9,43.5c-0.5-6.8-1.2-13.6-3.2-20.2C73.7,16.8,70.8,11,65.4,6.6c-4.1-3.3-8.8-5.4-14.1-6.1
	c-1.7-0.2-3.5-0.2-5.2-0.5c-0.3,0-0.6,0-1,0c-0.5,0.2-1,0.2-1.4,0C29.5,0,15.2,0,1,0C0.2,0,0,0.2,0,1c0,38.2,0,76.5,0,114.7
	c0,0.8,0.2,1,1,1c13.8,0,27.7,0,41.5,0c0.4-0.2,0.8-0.2,1.2,0c0.4,0,0.8,0,1.2,0c0.7-0.2,1.5-0.2,2.2-0.2c7.5-0.3,13.9-3.3,19.4-8.2
	c4.3-3.9,7-8.8,8.9-14.2c2.8-7.9,3.7-16.2,3.8-24.5C79.4,60.8,79.5,52.2,78.9,43.5z M53.5,73.6c-0.3,5.1-0.9,10.1-2.6,14.9
	c-2.4,6.7-6.7,9.9-13.8,10.1c-3.8,0.1-7.7,0-11.5,0.1c-1,0-1.2-0.3-1.2-1.2c0-13.1,0-26.1,0-39.2c0-13,0-26,0-39
	c0-1.1,0.3-1.4,1.4-1.4c4,0.1,8,0,12,0.1c6.2,0.1,10.5,3.2,12.9,8.9c1.9,4.5,2.6,9.2,2.8,14C54.1,51.8,54.1,62.7,53.5,73.6z"/>
<path class="st0" d="M358,39.3c-0.6-6.5-1.6-13-3.9-19.2c-3-7.9-7.8-14.1-15.8-17.5c-2.6-1.1-5.3-2.1-8.1-2.3
	c-1.6-0.1-3.1-0.2-4.7-0.4c-0.3,0-0.6,0-1,0c-0.5,0.2-1,0.2-1.4,0c-14.6,0-29.1,0-43.7,0c-0.4,0.3-0.5,0.8-0.6,1.3
	c0,0.6,0,1.2,0,1.8c0,36.8,0,73.7,0,110.5c0,0.6,0,1.2,0,1.8c0,0.5,0.1,1,0.6,1.3c14.2,0,28.3,0,42.5,0c0.4-0.2,0.8-0.2,1.2,0
	c0.4,0,0.8,0,1.2,0c0.8-0.2,1.7-0.2,2.5-0.2c7.4-0.4,13.8-3.3,19.2-8.3c4.3-4,7.1-8.9,9-14.4c2.4-6.9,3.5-14.1,3.6-21.3
	C358.8,61.4,359,50.3,358,39.3z M332.9,74.4c-0.3,5.1-1,10.3-2.9,15.1c-2.4,6-6.8,9-13.2,9.1c-4,0.1-7.9,0-11.9,0.1
	c-1,0-1.1-0.3-1.1-1.2c0-13.1,0-26.2,0-39.3c0-13,0-26,0-39c0-1,0.2-1.3,1.2-1.3c4,0.1,8,0,12,0.1c6.5,0.1,10.8,3.4,13.2,9.3
	c1.7,4.2,2.3,8.5,2.6,13C333.6,51.7,333.6,63.1,332.9,74.4z"/>
<path class="st0" d="M654.7,116.2c-0.4-1.6-0.4-3.3-0.8-4.9c-2.2-8.1-4.4-16.3-6.6-24.4c-3.2-11.9-6.4-23.8-9.7-35.6
	c-3.4-12.7-6.9-25.4-10.4-38.2c-1-3.7-2-7.4-3-11.1c-0.2-0.8-0.4-1.6-1.2-2c-10.7,0-21.4,0-32.2,0c-1,0.6-1,1.6-1.3,2.6
	c-2.6,9.6-5.3,19.2-8,28.8c-2.9,10.6-5.9,21.1-8.8,31.7c-2.8,10.2-5.7,20.5-8.5,30.7c-2,7.1-3.9,14.2-5.9,21.3
	c-0.2,0.6-0.3,1.2,0.3,1.6c8,0,16,0,24,0c0.9-0.4,1-1.2,1.2-2c1.8-7,3.6-14,5.4-21c0.5-2,0.7-2.1,2.7-2.1c9.4,0,18.7,0,28.1,0
	c0.3,0,0.6,0,0.8,0c0.8,0,1.3,0.4,1.5,1.2c0.9,3.6,1.8,7.1,2.7,10.7c0.9,3.8,1.9,7.5,2.8,11.3c0.2,0.7,0.3,1.5,1.1,1.9
	c5.1,0,10.2,0,15.4,0c3.2,0,6.4,0,9.6,0C654.3,116.7,654.9,116.9,654.7,116.2z M616.2,72.9c-6.9,0-13.8,0-20.8,0
	c-0.9,0-1.2-0.1-1-1.2c3.6-16.1,7.1-32.1,10.7-48.2c0.1-0.3,0.2-0.6,0.3-0.9c0.1,0,0.2,0,0.3,0c0.8,3.2,1.5,6.3,2.3,9.5
	c3.1,13.2,6.1,26.4,9.2,39.5C617.4,72.7,617.2,72.9,616.2,72.9z"/>
<path class="st0" d="M170.7,115c-0.8-2.9-1.6-5.8-2.4-8.7c-3-11.1-6-22.1-9-33.2c-3.4-12.5-6.8-25.1-10.2-37.6
	c-3.1-11.3-6.1-22.7-9.2-34c-0.2-0.6-0.4-1.1-0.9-1.5c-10.8,0-21.6,0-32.4,0c-1.2,0.9-1.2,2.4-1.5,3.7c-2.9,10.2-5.6,20.3-8.5,30.5
	c-3.3,12-6.7,24-10,36.1c-2.8,10.2-5.7,20.5-8.5,30.7c-1.2,4.5-2.5,9-3.7,13.5c-0.2,0.7-0.6,1.5,0.1,2.1c8.1,0,16.2,0,24.2,0
	c0.7-0.5,0.8-1.3,1-2.1c1.8-7.1,3.6-14.1,5.4-21.1c0.4-1.7,0.6-1.9,2.4-1.9c9.4,0,18.9,0,28.3,0c2,0,2.2,0.1,2.7,2.1
	c1.8,7,3.5,14,5.3,21c0.2,0.7,0.3,1.5,1,1.9c8.6,0,17.1,0,25.7,0C171,116.2,170.9,115.6,170.7,115z M131.9,72.9
	c-6.9,0-13.8,0-20.7,0c-0.9,0-1.2-0.2-1-1.1c3.6-16.2,7.2-32.3,10.8-48.5c0-0.2,0.1-0.4,0.2-0.6c0.1,0,0.2,0,0.3,0
	c1.4,6.2,2.9,12.3,4.3,18.5c2.4,10.1,4.7,20.3,7.1,30.4C133.1,72.6,133,72.9,131.9,72.9z"/>
</svg>
