<?xml version="1.0" encoding="utf-8"?>
<!-- Generator: Adobe Illustrator 18.1.0, SVG Export Plug-In . SVG Version: 6.00 Build 0)  -->
<!DOCTYPE svg PUBLIC "-//W3C//DTD SVG 1.1//EN" "http://www.w3.org/Graphics/SVG/1.1/DTD/svg11.dtd">
<svg version="1.1" id="tea_1_" xmlns="http://www.w3.org/2000/svg" xmlns:xlink="http://www.w3.org/1999/xlink" x="0px" y="0px"
	 width="195px" height="188px" viewBox="0 0 195 188" style="enable-background:new 0 0 195 188;" xml:space="preserve">
<style type="text/css">
	.st0{fill:#C4B67A;}
	.st1{fill:#01B1AF;}
</style>
<polygon id="liquid" class="st0" points="9.6,48 144.6,48 124.2,188 29.6,188 "/>
<g id="mug">
	<g>
		<g>
			<path class="st1" d="M147.5,6l-20.9,141.9c0,0.2-0.1,0.5-0.1,0.7l-4.7,33.4h-90l-5.1-32.9c0-0.2-0.1-0.4-0.1-0.6L6.3,6H147.5
				 M151.5,0H2.4C0.8,0-0.4,1.4-0.2,3.1L20.6,150h0l5.2,33.2c0.4,2.8,2.8,4.8,5.6,4.8H122c2.8,0,5.2-1.9,5.6-4.7l4.9-34.3h0L154,3.2
				C154.3,1.6,152.5,0.1,151.5,0L151.5,0z"/>
		</g>
	</g>
	<path class="st1" d="M149.8,15.7c0,0-0.7,0,12.4,2.8c0,0,0.4,0.1,1.1,0.3c16.7,4.6,29.2,18.8,31.6,36c0.5,3.5,0.5,7.3,0,11.3
		c-1.6,13.9-8.1,26.9-18.1,36.7c-9,8.7-22.8,18.2-42.1,21.3l3.5-15.9c0,0,1.8,2.8,11.3-0.2c0,0,30-5.9,36.2-38.2
		c0,0,5.5-31-20.1-40.3c0,0-12.8-4.3-18.2,0.1L149.8,15.7z"/>
</g>
<g>
</g>
<g>
</g>
<g>
</g>
<g>
</g>
<g>
</g>
<g>
</g>
<g>
</g>
<g>
</g>
<g>
</g>
<g>
</g>
<g>
</g>
<g>
</g>
<g>
</g>
<g>
</g>
<g>
</g>
</svg>
