<?xml version="1.0" encoding="utf-8"?>
<!-- Generator: Adobe Illustrator 18.1.0, SVG Export Plug-In . SVG Version: 6.00 Build 0)  -->
<!DOCTYPE svg PUBLIC "-//W3C//DTD SVG 1.1//EN" "http://www.w3.org/Graphics/SVG/1.1/DTD/svg11.dtd">
<svg version="1.1" id="Layer_1" xmlns="http://www.w3.org/2000/svg" xmlns:xlink="http://www.w3.org/1999/xlink" x="0px" y="0px"
	 viewBox="0 0 30.1 112.6" style="enable-background:new 0 0 30.1 112.6;" xml:space="preserve">
<style type="text/css">
	.st0{fill:none;stroke:#00B1AE;stroke-width:3.9457;stroke-miterlimit:10;}
	.st1{fill:none;stroke:#00B1AE;stroke-width:1.4337;stroke-linecap:round;stroke-miterlimit:10;}
	.st2{fill:none;stroke:#00B1AE;stroke-width:1.1706;stroke-linecap:round;stroke-miterlimit:10;}
</style>
<g>
	<path class="st0" d="M22.7,87V9.7C22.7,5.4,19.3,2,15,2h0c-4.3,0-7.7,3.5-7.7,7.7v77.4C4.1,89.4,2,93.3,2,97.6
		c0,7.2,5.9,13.1,13.1,13.1c7.2,0,13.1-5.9,13.1-13.1C28.1,93.2,26,89.3,22.7,87z"/>
	<g>
		<line class="st1" x1="6.5" y1="13.2" x2="15.5" y2="13.2"/>
		<line class="st2" x1="6.3" y1="16" x2="12.3" y2="16"/>
		<line class="st2" x1="6.3" y1="18.9" x2="12.3" y2="18.9"/>
		<line class="st2" x1="6.3" y1="21.8" x2="12.3" y2="21.8"/>
		<line class="st2" x1="6.3" y1="24.7" x2="12.3" y2="24.7"/>
	</g>
	<g>
		<line class="st1" x1="6.5" y1="28" x2="15.5" y2="28"/>
		<line class="st2" x1="6.3" y1="30.8" x2="12.3" y2="30.8"/>
		<line class="st2" x1="6.3" y1="33.7" x2="12.3" y2="33.7"/>
		<line class="st2" x1="6.3" y1="36.6" x2="12.3" y2="36.6"/>
		<line class="st2" x1="6.3" y1="39.5" x2="12.3" y2="39.5"/>
	</g>
	<g>
		<line class="st1" x1="6.5" y1="42.8" x2="15.5" y2="42.8"/>
		<line class="st2" x1="6.3" y1="45.6" x2="12.3" y2="45.6"/>
		<line class="st2" x1="6.3" y1="48.5" x2="12.3" y2="48.5"/>
		<line class="st2" x1="6.3" y1="51.4" x2="12.3" y2="51.4"/>
		<line class="st2" x1="6.3" y1="54.3" x2="12.3" y2="54.3"/>
	</g>
	<g>
		<line class="st1" x1="6.5" y1="57.6" x2="15.5" y2="57.6"/>
		<line class="st2" x1="6.3" y1="60.4" x2="12.3" y2="60.4"/>
		<line class="st2" x1="6.3" y1="63.3" x2="12.3" y2="63.3"/>
		<line class="st2" x1="6.3" y1="66.2" x2="12.3" y2="66.2"/>
		<line class="st2" x1="6.3" y1="69.1" x2="12.3" y2="69.1"/>
	</g>
	<g>
		<line class="st1" x1="6.5" y1="72.3" x2="15.5" y2="72.3"/>
		<line class="st2" x1="6.3" y1="75.2" x2="12.3" y2="75.2"/>
		<line class="st2" x1="6.3" y1="78.1" x2="12.3" y2="78.1"/>
		<line class="st2" x1="6.3" y1="81" x2="12.3" y2="81"/>
		<line class="st2" x1="6.3" y1="83.9" x2="12.3" y2="83.9"/>
	</g>
</g>
<g>
</g>
<g>
</g>
<g>
</g>
<g>
</g>
<g>
</g>
<g>
</g>
</svg>
