<?xml version="1.0" encoding="utf-8"?>
<!-- Generator: Adobe Illustrator 18.1.0, SVG Export Plug-In . SVG Version: 6.00 Build 0)  -->
<!DOCTYPE svg PUBLIC "-//W3C//DTD SVG 1.1//EN" "http://www.w3.org/Graphics/SVG/1.1/DTD/svg11.dtd">
<svg version="1.1" id="Layer_1" xmlns="http://www.w3.org/2000/svg" xmlns:xlink="http://www.w3.org/1999/xlink" x="0px" y="0px"
	 viewBox="0 0 17.3 63.7" style="enable-background:new 0 0 17.3 63.7;" xml:space="preserve">
<style type="text/css">
	.st0{fill:#E73E51;}
	.st1{fill:none;stroke:#00B1AE;stroke-width:2.6229;stroke-miterlimit:10;}
	.st2{fill:none;stroke:#00B1AE;stroke-width:0.9531;stroke-linecap:round;stroke-miterlimit:10;}
	.st3{fill:none;stroke:#00B1AE;stroke-width:0.7782;stroke-linecap:round;stroke-miterlimit:10;}
</style>
<circle class="st0" cx="8.7" cy="55.3" r="6.4"/>
<g>
	<g>
		<path class="st1" d="M12.9,49.1V5.6c0-2.4-1.9-4.3-4.3-4.3l0,0c-2.4,0-4.3,2-4.3,4.3v43.5c-1.8,1.3-3,3.5-3,5.9
			c0,4,3.3,7.4,7.4,7.4S16,59.1,16,55C16,52.5,14.8,50.3,12.9,49.1z"/>
		<g>
			<line class="st2" x1="3.8" y1="7.6" x2="8.9" y2="7.6"/>
			<line class="st3" x1="3.7" y1="9.2" x2="7.1" y2="9.2"/>
			<line class="st3" x1="3.7" y1="10.8" x2="7.1" y2="10.8"/>
			<line class="st3" x1="3.7" y1="12.4" x2="7.1" y2="12.4"/>
			<line class="st3" x1="3.7" y1="14.1" x2="7.1" y2="14.1"/>
		</g>
		<g>
			<line class="st2" x1="3.8" y1="15.9" x2="8.9" y2="15.9"/>
			<line class="st3" x1="3.7" y1="17.5" x2="7.1" y2="17.5"/>
			<line class="st3" x1="3.7" y1="19.1" x2="7.1" y2="19.1"/>
			<line class="st3" x1="3.7" y1="20.7" x2="7.1" y2="20.7"/>
			<line class="st3" x1="3.7" y1="22.4" x2="7.1" y2="22.4"/>
		</g>
		<g>
			<line class="st2" x1="3.8" y1="24.2" x2="8.9" y2="24.2"/>
			<line class="st3" x1="3.7" y1="25.8" x2="7.1" y2="25.8"/>
			<line class="st3" x1="3.7" y1="27.4" x2="7.1" y2="27.4"/>
			<line class="st3" x1="3.7" y1="29.1" x2="7.1" y2="29.1"/>
			<line class="st3" x1="3.7" y1="30.7" x2="7.1" y2="30.7"/>
		</g>
		<g>
			<line class="st2" x1="3.8" y1="32.5" x2="8.9" y2="32.5"/>
			<line class="st3" x1="3.7" y1="34.1" x2="7.1" y2="34.1"/>
			<line class="st3" x1="3.7" y1="35.7" x2="7.1" y2="35.7"/>
			<line class="st3" x1="3.7" y1="37.4" x2="7.1" y2="37.4"/>
			<line class="st3" x1="3.7" y1="39" x2="7.1" y2="39"/>
		</g>
		<g>
			<line class="st2" x1="3.8" y1="40.8" x2="8.9" y2="40.8"/>
			<line class="st3" x1="3.7" y1="42.4" x2="7.1" y2="42.4"/>
			<line class="st3" x1="3.7" y1="44.1" x2="7.1" y2="44.1"/>
			<line class="st3" x1="3.7" y1="45.7" x2="7.1" y2="45.7"/>
			<line class="st3" x1="3.7" y1="47.3" x2="7.1" y2="47.3"/>
		</g>
	</g>
</g>
<g>
</g>
<g>
</g>
<g>
</g>
<g>
</g>
<g>
</g>
<g>
</g>
</svg>
