<?xml version="1.0" encoding="utf-8"?>
<!-- Generator: Adobe Illustrator 18.1.0, SVG Export Plug-In . SVG Version: 6.00 Build 0)  -->
<!DOCTYPE svg PUBLIC "-//W3C//DTD SVG 1.1//EN" "http://www.w3.org/Graphics/SVG/1.1/DTD/svg11.dtd">
<svg version="1.1" id="Layer_1" xmlns="http://www.w3.org/2000/svg" xmlns:xlink="http://www.w3.org/1999/xlink" x="0px" y="0px"
	 viewBox="0 0 25 91.7" enable-background="new 0 0 25 91.7" xml:space="preserve">
<circle fill="#E73E51" cx="12.5" cy="79.6" r="9.3"/>
<path fill="none" stroke="#FFFFFF" stroke-width="3.7758" stroke-miterlimit="10" d="M18.6,70.6V8.1c0-3.5-2.7-6.2-6.2-6.2l0,0
	c-3.5,0-6.2,2.8-6.2,6.2v62.6c-2.6,1.9-4.3,5-4.3,8.5c0,5.8,4.8,10.6,10.6,10.6S23.1,85,23.1,79.2C23,75.6,21.3,72.5,18.6,70.6z"/>
<line fill="none" stroke="#FFFFFF" stroke-width="1.372" stroke-linecap="round" stroke-miterlimit="10" x1="5.5" y1="10.9" x2="12.8" y2="10.9"/>
<line fill="none" stroke="#FFFFFF" stroke-width="1.1202" stroke-linecap="round" stroke-miterlimit="10" x1="5.4" y1="13.2" x2="10.2" y2="13.2"/>
<line fill="none" stroke="#FFFFFF" stroke-width="1.1202" stroke-linecap="round" stroke-miterlimit="10" x1="5.4" y1="15.6" x2="10.2" y2="15.6"/>
<line fill="none" stroke="#FFFFFF" stroke-width="1.1202" stroke-linecap="round" stroke-miterlimit="10" x1="5.4" y1="17.9" x2="10.2" y2="17.9"/>
<line fill="none" stroke="#FFFFFF" stroke-width="1.1202" stroke-linecap="round" stroke-miterlimit="10" x1="5.4" y1="20.2" x2="10.2" y2="20.2"/>
<line fill="none" stroke="#FFFFFF" stroke-width="1.372" stroke-linecap="round" stroke-miterlimit="10" x1="5.5" y1="22.9" x2="12.8" y2="22.9"/>
<line fill="none" stroke="#FFFFFF" stroke-width="1.1202" stroke-linecap="round" stroke-miterlimit="10" x1="5.4" y1="25.2" x2="10.2" y2="25.2"/>
<line fill="none" stroke="#FFFFFF" stroke-width="1.1202" stroke-linecap="round" stroke-miterlimit="10" x1="5.4" y1="27.5" x2="10.2" y2="27.5"/>
<line fill="none" stroke="#FFFFFF" stroke-width="1.1202" stroke-linecap="round" stroke-miterlimit="10" x1="5.4" y1="29.9" x2="10.2" y2="29.9"/>
<line fill="none" stroke="#FFFFFF" stroke-width="1.1202" stroke-linecap="round" stroke-miterlimit="10" x1="5.4" y1="32.2" x2="10.2" y2="32.2"/>
<line fill="none" stroke="#FFFFFF" stroke-width="1.372" stroke-linecap="round" stroke-miterlimit="10" x1="5.5" y1="34.9" x2="12.8" y2="34.9"/>
<line fill="none" stroke="#FFFFFF" stroke-width="1.1202" stroke-linecap="round" stroke-miterlimit="10" x1="5.4" y1="37.1" x2="10.2" y2="37.1"/>
<line fill="none" stroke="#FFFFFF" stroke-width="1.1202" stroke-linecap="round" stroke-miterlimit="10" x1="5.4" y1="39.5" x2="10.2" y2="39.5"/>
<line fill="none" stroke="#FFFFFF" stroke-width="1.1202" stroke-linecap="round" stroke-miterlimit="10" x1="5.4" y1="41.8" x2="10.2" y2="41.8"/>
<line fill="none" stroke="#FFFFFF" stroke-width="1.1202" stroke-linecap="round" stroke-miterlimit="10" x1="5.4" y1="44.2" x2="10.2" y2="44.2"/>
<line fill="none" stroke="#FFFFFF" stroke-width="1.372" stroke-linecap="round" stroke-miterlimit="10" x1="5.5" y1="46.8" x2="12.8" y2="46.8"/>
<line fill="none" stroke="#FFFFFF" stroke-width="1.1202" stroke-linecap="round" stroke-miterlimit="10" x1="5.4" y1="49.1" x2="10.2" y2="49.1"/>
<line fill="none" stroke="#FFFFFF" stroke-width="1.1202" stroke-linecap="round" stroke-miterlimit="10" x1="5.4" y1="51.5" x2="10.2" y2="51.5"/>
<line fill="none" stroke="#FFFFFF" stroke-width="1.1202" stroke-linecap="round" stroke-miterlimit="10" x1="5.4" y1="53.8" x2="10.2" y2="53.8"/>
<line fill="none" stroke="#FFFFFF" stroke-width="1.1202" stroke-linecap="round" stroke-miterlimit="10" x1="5.4" y1="56.1" x2="10.2" y2="56.1"/>
<line fill="none" stroke="#FFFFFF" stroke-width="1.372" stroke-linecap="round" stroke-miterlimit="10" x1="5.5" y1="58.7" x2="12.8" y2="58.7"/>
<line fill="none" stroke="#FFFFFF" stroke-width="1.1202" stroke-linecap="round" stroke-miterlimit="10" x1="5.4" y1="61.1" x2="10.2" y2="61.1"/>
<line fill="none" stroke="#FFFFFF" stroke-width="1.1202" stroke-linecap="round" stroke-miterlimit="10" x1="5.4" y1="63.4" x2="10.2" y2="63.4"/>
<line fill="none" stroke="#FFFFFF" stroke-width="1.1202" stroke-linecap="round" stroke-miterlimit="10" x1="5.4" y1="65.8" x2="10.2" y2="65.8"/>
<line fill="none" stroke="#FFFFFF" stroke-width="1.1202" stroke-linecap="round" stroke-miterlimit="10" x1="5.4" y1="68.1" x2="10.2" y2="68.1"/>
</svg>
